<svg xmlns="http://www.w3.org/2000/svg" viewBox="0 0 22 22"><defs><style>.cls-1{fill:#3c3f42;opacity:0.3;}.cls-2{fill:bisque;}</style></defs><title>ICONS</title><g id="geolocation"><path id="inner_ring" class="cls-1" d="M11,8.72A2.28,2.28,0,1,0,13.28,11,2.28,2.28,0,0,0,11,8.72Zm0,3.93A1.65,1.65,0,1,1,12.65,11,1.65,1.65,0,0,1,11,12.65Z"/><g id="mian"><path id="outer_ring" class="cls-2" d="M13.9,10.65A2.93,2.93,0,0,0,11.35,8.1V7.42h-.69V8.1A2.93,2.93,0,0,0,8.1,10.65H7.42v.69H8.1a2.93,2.93,0,0,0,2.55,2.55v.68h.69V13.9a2.93,2.93,0,0,0,2.55-2.55h.68v-.69ZM11,13.23A2.23,2.23,0,1,1,13.23,11,2.23,2.23,0,0,1,11,13.23Z"/><circle id="inner_dot" class="cls-2" cx="11" cy="11" r="1.67"/></g></g></svg>