<svg xmlns="http://www.w3.org/2000/svg" viewBox="0 0 22 22"><defs><style>.cls-1,.cls-2{fill:#333;}.cls-2{opacity:0.15;}</style></defs><title>ICONS</title><g id="layer"><path class="cls-1" d="M11.8,2.15v0h-.32A.78.78,0,0,0,11.8,2.15Z"/><path class="cls-1" d="M19.39,13.67a1.78,1.78,0,0,0,.4-.15.61.61,0,0,0,.31-.53,1,1,0,0,0-.45-.93c-.8-.59-1.59-1.2-2.38-1.8,0,0-.14-.06-.12-.14s.1-.05.15-.07l2.14-.55A.92.92,0,0,0,20,9.23a.93.93,0,0,0-.13-1.17L18.17,6.79,12.51,2.48a1.13,1.13,0,0,0-.72-.34,1.12,1.12,0,0,1-.31,0h0c-.66.06-1.33.14-2,.25L2.74,3.51l-.09,0c-.36.06-.64.22-.67.63v.35c0,.38.36.57.6.8L3.35,6c.4.36.78.73,1.18,1.09l.07.07c.1.11.08.16-.07.18l-.89.15-1,.17a1.36,1.36,0,0,0-.3.1A.46.46,0,0,0,2,8.21a.16.16,0,0,1,0,.1v.35a1,1,0,0,0,.37.59l2.18,2c.05,0,.13.09.1.17s-.11.07-.18.08l-1.83.31A1,1,0,0,0,2.2,12a.73.73,0,0,0-.22.46v.28a1,1,0,0,0,.38.64c.45.4.89.82,1.33,1.23l2,1.88L7,17.77,9.39,20a1,1,0,0,0,.49.17h.28c1.43-.22,2.8-.67,4.2-1s2.86-.73,4.29-1.1l.75-.2c.67-.17.71-.45.67-1a.54.54,0,0,0-.18-.36,12.19,12.19,0,0,0-1-.78l-1.63-1.24s-.13-.07-.11-.14.09-.06.15-.08Zm-1.61,3a.27.27,0,0,1-.18.09l-7.2,1.85a.37.37,0,0,1-.39-.1L8,16.6l-3.6-3.35s-.13-.08-.1-.15.11-.05.17-.06l1.62-.28a.33.33,0,0,1,.32.1c1,.92,2,1.83,3,2.76a1,1,0,0,0,1.08.27c1.5-.4,3-.78,4.52-1.17a.42.42,0,0,1,.41.08l1.77,1.35Zm-7.35-2.22-.18,0a.31.31,0,0,1-.22-.12L8.47,12.91,4.36,9.09S4.24,9,4.26,9s.11-.06.17-.07c.52-.09,1-.17,1.57-.27a.44.44,0,0,1,.42.13c1,.93,2,1.84,3,2.77a.9.9,0,0,0,.94.23l.87-.23,3.72-1c.11,0,.21-.07.32,0l2.46,1.87s.07,0,.06.08-.06,0-.1.06l-.09,0Z"/><path class="cls-2" d="M17.66,12.59s.09,0,.1-.06,0-.06-.06-.08l-2.46-1.87c-.11-.08-.21,0-.32,0l-3.72,1-.87.23a.9.9,0,0,1-.94-.23c-1-.93-2-1.84-3-2.77A.44.44,0,0,0,6,8.61c-.52.1-1,.18-1.57.27-.06,0-.15,0-.17.07s.06.1.1.14l4.11,3.82L10,14.37a.31.31,0,0,0,.22.12l.18,0,7.15-1.84Z"/><path class="cls-2" d="M15.33,14.8a.42.42,0,0,0-.41-.08c-1.51.39-3,.77-4.52,1.17a1,1,0,0,1-1.08-.27c-1-.93-2-1.84-3-2.76a.33.33,0,0,0-.32-.1L4.43,13c-.06,0-.15,0-.17.06s.06.11.1.15L8,16.6l2,1.9a.37.37,0,0,0,.39.1l7.2-1.85a.27.27,0,0,0,.18-.09l-.68-.52Z"/></g></svg>