<svg xmlns="http://www.w3.org/2000/svg" viewBox="0 0 22 22"><defs><style>.cls-1,.cls-2{fill:#282828;}.cls-2{opacity:0.2;}</style></defs><title>ICONS</title><g id="trashcan"><path class="cls-1" d="M18.34,7.62H3.77a.08.08,0,0,0-.08.08v.37a.08.08,0,0,0,.08.08h.67V18.47a1.57,1.57,0,0,0,.25.9,1.88,1.88,0,0,0,1.65.86h9.55l.34,0a1.81,1.81,0,0,0,1.61-1.81c0-2.5,0-5,0-7.51V8.15h.5a.08.08,0,0,0,.08-.08V7.7A.08.08,0,0,0,18.34,7.62Zm-12,2.1A.93.93,0,0,1,6.63,9a1,1,0,0,1,.66-.27h0a1.1,1.1,0,0,1,.53.11.83.83,0,0,1,.48.77q0,1.34,0,2.68v1.34q0,.59,0,1.17c0,.91,0,1.85,0,2.78a.88.88,0,0,1-.25.64,1,1,0,0,1-.67.29h0a1,1,0,0,1-.58-.14.81.81,0,0,1-.43-.74c0-.21,0-.42,0-.63v-.32q0-1,0-1.91C6.37,13.14,6.37,11.42,6.36,9.72ZM12,17.64a.89.89,0,0,1-.83.91,1.06,1.06,0,0,1-.87-.26.83.83,0,0,1-.26-.63q0-1.5,0-3v-5A.89.89,0,0,1,11,8.77h.09a1,1,0,0,1,.85.42.78.78,0,0,1,.13.47q0,3.28,0,6.56c0,.14,0,.28,0,.43C12,17,12,17.3,12,17.64Zm2.9.91h0a1.46,1.46,0,0,1-.46-.07.83.83,0,0,1-.58-.83V12.89c0-.31,0-.63,0-.94,0-.74,0-1.51,0-2.27a.88.88,0,0,1,.83-.9h.1a1.52,1.52,0,0,1,.45.06.82.82,0,0,1,.58.82v4c0,.39,0,.77,0,1.16,0,.92,0,1.88,0,2.82a.89.89,0,0,1-.25.64A.92.92,0,0,1,14.93,18.55Z"/><path class="cls-2" d="M10,13.65q0-2,0-4a1,1,0,0,1,1-1,1.06,1.06,0,0,1,1,.45.88.88,0,0,1,.14.52q0,3.28,0,6.56c0,.47,0,.95,0,1.42a1,1,0,0,1-.9,1,1.12,1.12,0,0,1-.94-.28.9.9,0,0,1-.28-.69Q10,15.65,10,13.65Z"/><path class="cls-2" d="M15.91,13.65c0,1.33,0,2.66,0,4a1,1,0,0,1-1,1,1.6,1.6,0,0,1-.5-.07.91.91,0,0,1-.64-.91q0-2.38,0-4.77c0-1.07,0-2.14,0-3.21a1,1,0,0,1,.91-1,1.69,1.69,0,0,1,.57.06.9.9,0,0,1,.64.9Q15.91,11.65,15.91,13.65Z"/><path class="cls-2" d="M8.4,13.67c0,1.32,0,2.63,0,4a1,1,0,0,1-1,1,1.18,1.18,0,0,1-.65-.15.9.9,0,0,1-.47-.81c0-.32,0-.63,0-.95,0-2.34,0-4.67,0-7a1,1,0,0,1,1-1,1.2,1.2,0,0,1,.57.12.91.91,0,0,1,.52.84Q8.4,11.66,8.4,13.67Z"/><path class="cls-1" d="M18.32,5.18h-.9s0,0,0,0a.93.93,0,0,0-1-.69H14.76s0,0,0-.06,0-.12,0-.18a2.86,2.86,0,0,0,0-.42,1.57,1.57,0,0,0-1.58-1.31H8.58a1.45,1.45,0,0,0-1.23.64A1.86,1.86,0,0,0,7,4.29v.2H5.37a.91.91,0,0,0-.91.68H3.77a.08.08,0,0,0-.08.08V6.85a.08.08,0,0,0,.08.08H18.34a.08.08,0,0,0,.08-.08V5.26S18.36,5.18,18.32,5.18ZM8,4.4a2,2,0,0,1,0-.32.53.53,0,0,1,.54-.43h4.62a.53.53,0,0,1,.55.48,1.91,1.91,0,0,1,0,.34H8S8,4.43,8,4.4Z"/></g></svg>